<svg xmlns="http://www.w3.org/2000/svg" width="115" height="40" fill="none"><g clip-path="url(#a)"><path fill="#1A4FFF" d="M25.956 21.148c-.484 1.405-.915 2.65-1.341 3.895-.779 2.276-1.544 4.558-2.35 6.825-.087.245-.383.595-.585.596-3.246.038-6.491.026-9.876.026.346-1.024.655-1.958.977-2.886 2.39-6.87 4.788-13.737 7.167-20.612.165-.476.381-.671.915-.668 3.628.026 7.259.02 10.887.005.465-.002.719.105.89.585 2.726 7.67 5.473 15.332 8.214 22.997.054.15.08.31.139.542-.31.016-.568.04-.826.04-3.141.004-6.284-.016-9.425.017-.601.006-.837-.208-1.024-.751-1.127-3.274-2.289-6.534-3.442-9.8-.076-.215-.167-.425-.32-.812v.002zm.09-.095-4.07-11.365-3.94 11.365z"/></g><path fill="#fff" d="M92.51 30.891q-2.11 1.355-4.335 1.355-2.367 0-4.178-1.013a7.5 7.5 0 0 1-2.823-2.809q-1.012-1.796-1.012-4.106 0-2.524.998-4.392t2.752-2.894q1.753-1.041 4.035-1.041 2.425 0 4.12 1.14 1.698 1.14 2.51 3.209.813 2.067.57 4.862h-3.835v-1.426q0-2.353-.756-3.38-.741-1.04-2.438-1.04-1.982 0-2.923 1.212-.927 1.198-.927 3.55 0 2.154.927 3.337.941 1.17 2.752 1.169 1.14 0 1.953-.5.814-.498 1.24-1.44h4.065q-.57 2.853-2.695 4.207m.77-8.57v2.88H83.07v-2.88h1.227l-.129 1.312h.457q.071-.64.541-.97.47-.34 1.27-.341zm-17.108 8.57q-1.71 1.355-4.733 1.355-2.91 0-4.706-1.312-1.782-1.327-2.238-4.335h4.035q.242 1.084 1.07 1.697.84.613 2.124.613 1.055 0 1.625-.4.57-.412.57-1.14 0-.456-.227-.727-.23-.286-1.027-.556-.784-.27-2.453-.713-1.881-.485-3.008-1.084t-1.626-1.426q-.498-.84-.499-2.024 0-1.484.756-2.567.756-1.098 2.125-1.682 1.383-.6 3.25-.6 1.811 0 3.209.557 1.396.556 2.253 1.582.87 1.027 1.083 3.137h-3.978q-.1-.855-.741-1.354-.642-.5-1.74-.585-1.07-.07-1.725.285-.642.357-.642 1.027 0 .4.271.67.285.27 1.155.556.885.285 2.68.742 1.755.456 2.81 1.07 1.069.597 1.554 1.453.485.841.485 2.04 0 2.366-1.712 3.721M61.146 10.857v3.423h-3.878v-3.422zm0 5.561v15.4h-3.878v-15.4zm-11.994 6.474-.014 8.926H45.23v-15.4h3.422v.685q0 .684-.142 1.383a32 32 0 0 1-.414 1.696h.328q.756-2.152 1.183-2.766.443-.613 1.041-.827.6-.213 1.426-.214h2.196v3.565l-2.538.014q-1.44-.015-2.01.6-.629.669-.57 2.338"/><path fill="#A7ADBE" d="M103.308 8.157v6.005h-1.135V8.157zm-3.55 5.838q-.55.292-1.276.292-.725 0-1.276-.292a2.15 2.15 0 0 1-.859-.83q-.308-.534-.308-1.255V8.165l1.15-.008V11.9q0 .297.1.538t.276.417q.18.175.413.271.237.092.504.092.275 0 .509-.096.237-.096.413-.27.176-.177.27-.418.1-.242.1-.534V8.157h1.152v3.753q0 .721-.309 1.255a2.14 2.14 0 0 1-.859.83"/><defs><clipPath id="a"><path fill="#fff" d="M11.804 8.324h29.19V32.51h-29.19z"/></clipPath></defs></svg>